<svg xmlns="http://www.w3.org/2000/svg" data-name="Layer 1" viewBox="0 0 512 640" x="0px" y="0px"><title>Cone</title><g data-name="Group"><path data-name="Compound Path" d="M263.155,29.422a8,8,0,0,0-14.31,0L52.787,421.538A20.087,20.087,0,0,0,48,434.238c0,16.555,21.812,29.83,64.831,39.458C151.163,482.275,202.008,487,256,487s104.837-4.725,143.169-13.3c43.019-9.628,64.831-22.9,64.831-39.458a20.087,20.087,0,0,0-4.786-12.7ZM256,50.889l176.92,353.84a227.721,227.721,0,0,0-33.751-9.949c-38.332-8.579-89.177-13.3-143.169-13.3s-104.837,4.725-143.169,13.3a227.721,227.721,0,0,0-33.751,9.949ZM395.674,458.083C358.456,466.413,308.852,471,256,471s-102.456-4.587-139.674-12.917c-40.968-9.169-51.391-19.476-52.257-23.332l2.241-4.483c4.8-4.94,18.186-12.751,50.016-19.874,37.218-8.331,86.822-12.918,139.674-12.918s102.456,4.587,139.674,12.918c31.829,7.123,45.217,14.934,50.016,19.874l2.241,4.483C447.065,438.607,436.641,448.914,395.674,458.083Z"/></g></svg>