<svg xmlns="http://www.w3.org/2000/svg" viewBox="0 0 32 40" x="0px" y="0px"><g data-name="Layer 2"><path d="M16,17A7.5,7.5,0,1,0,8.5,9.5,7.508,7.508,0,0,0,16,17ZM16,4a5.5,5.5,0,1,1-5.5,5.5A5.506,5.506,0,0,1,16,4Zm1.829,14H14.171A9.181,9.181,0,0,0,5,27.171a2,2,0,0,0,1.637,1.971A51.672,51.672,0,0,0,16,30a51.707,51.707,0,0,0,9.375-.86A2,2,0,0,0,27,27.173v0A9.181,9.181,0,0,0,17.829,18ZM7,27.171A7.179,7.179,0,0,1,14.171,20h3.658A7.18,7.18,0,0,1,25,27.173h.011A49.586,49.586,0,0,1,7,27.171Z"/></g></svg>