<svg xmlns="http://www.w3.org/2000/svg" data-name="Layer 1" viewBox="0 0 512 640" x="0px" y="0px"><title>Isometric</title><g data-name="Group"><path data-name="Compound Path" d="M473.561,101.512,258.4,32.106a7.927,7.927,0,0,0-4.884,0L38.426,101.512A7.894,7.894,0,0,0,33,109.126V402.874a7.906,7.906,0,0,0,5.439,7.614L253.6,479.894a7.842,7.842,0,0,0,2.428.386,7.925,7.925,0,0,0,2.442-.386l215.1-69.406A7.9,7.9,0,0,0,479,402.874V109.126A7.906,7.906,0,0,0,473.561,101.512ZM256,48.126l189.147,61L256,170.126l-189.147-61ZM463,391.888,263,327.32V184.68l200-64.568ZM49,120.112l198,63.923v143.93L49,391.888ZM247,344.777V460.971l-180.147-58.1Zm16,116.84V344.132l182.147,58.742Z"/></g></svg>