<svg xmlns="http://www.w3.org/2000/svg" data-name="Layer 1" viewBox="0 0 100 125" x="0px" y="0px"><path d="M18,87.29a7.5,7.5,0,0,0,10.6,0L44.46,71.38,51.1,78a3.75,3.75,0,0,0,5.3-5.3l-4-4L88.22,32.92a5.23,5.23,0,0,0,1.32-3.2V14.12a3.73,3.73,0,0,0-3.74-3.74H70.21A5.17,5.17,0,0,0,67,11.71L31.2,47.51l-4-4a3.75,3.75,0,0,0-5.3,5.3l6.63,6.63L12.64,71.38a7.5,7.5,0,0,0,0,10.6ZM71.44,17.88H82.08l0,10.66L47.12,63.43l-2.65-2.65L63,42.2a3.75,3.75,0,0,0-5.3-5.3L39.16,55.47l-2.65-2.65ZM33.86,60.77l5.3,5.3-6.62,6.62-1.31-9.3ZM24.59,70l1.31,9.3L23.25,82l-5.31-5.31Z"/></svg>