<svg xmlns="http://www.w3.org/2000/svg" xmlns:xlink="http://www.w3.org/1999/xlink" version="1.1" x="0px" y="0px" viewBox="0 15 100 70" enable-background="new 0 0 100 100" xml:space="preserve"><g><path d="M16,18v51h7.331c-1.179,3.771-1.831,8.012-1.831,12.5c0,0.828,0.672,1.5,1.5,1.5h33.583c0.828,0,1.5-0.672,1.5-1.5   c0-4.089-0.552-7.979-1.549-11.5h16.288H85V18H16z M24.526,80c0.391-10.93,5.02-20.238,11.526-22.933   c0.523-0.217,0.88-0.71,0.922-1.274c0.042-0.565-0.238-1.105-0.724-1.397c-2.733-1.642-4.432-4.867-4.432-8.417   c0-5.227,3.673-9.479,8.188-9.479s8.188,4.252,8.188,9.479c0,3.633-1.76,6.892-4.594,8.504c-0.492,0.28-0.785,0.815-0.756,1.382   c0.029,0.565,0.376,1.067,0.895,1.295C50.124,59.964,54.667,69.232,55.056,80H24.526z M56,67h-0.459   c-1.063-2.782-2.429-5.258-4.051-7.313c0.205-0.181,0.366-0.416,0.449-0.698c1.325-4.507,3.382-6.133,6.486-7.418   c0.523-0.217,0.88-0.71,0.922-1.274c0.042-0.565-0.238-1.105-0.724-1.397c-1.809-1.085-2.932-3.23-2.932-5.596   c0-3.467,2.409-6.288,5.371-6.288s5.372,2.821,5.372,6.288c0,2.421-1.164,4.587-3.038,5.654c-0.492,0.28-0.785,0.815-0.756,1.382   s0.376,1.067,0.895,1.295c4.292,1.885,7.372,8.085,7.748,15.366H56z M82,67h-7.712c-0.341-7.431-3.201-13.816-7.492-16.928   c1.665-1.728,2.64-4.156,2.64-6.769c0-5.121-3.756-9.288-8.372-9.288s-8.371,4.167-8.371,9.288c0,2.488,0.894,4.826,2.426,6.54   c-2.507,1.434-4.468,3.562-5.79,7.499c-0.703-0.648-1.435-1.236-2.203-1.74c2.554-2.339,4.068-5.835,4.068-9.623   c0-6.881-5.019-12.479-11.188-12.479s-11.188,5.598-11.188,12.479c0,3.681,1.446,7.114,3.887,9.456   c-3.475,2.183-6.323,5.895-8.281,10.565H19V21h63V67z"/></g></svg>