<svg xmlns="http://www.w3.org/2000/svg" xmlns:xlink="http://www.w3.org/1999/xlink" version="1.1" x="0px" y="0px" viewBox="0 0 67 83.75" enable-background="new 0 0 67 67" xml:space="preserve"><g><path d="M33.1,0.5C14.2,0.9,0.5,16.1,0.5,33.5c0,0,0,0,0,0v0l0,0c0,18.2,14.8,33,33,33c18.2,0,33-14.8,33-33   C66.5,15.4,51.7,0.3,33.1,0.5z M64.3,29.8c0,0-0.1,0-0.1,0.1c-0.5,0.3-0.6,0.9-0.3,1.4c0.5,0.8,0.7,1.5,0.7,2.3   c0,3.2-4.4,6.6-11.8,8.8c0.5-2.8,0.7-5.7,0.7-8.8c0-3.3-0.3-6.4-0.8-9.4c0.5-0.5,0.3-1.2-0.3-1.5c-1.8-8.3-5.5-15.1-10.2-18.9   C53.8,7.1,62.8,17.3,64.3,29.8z M24.9,3.7c-0.2,0.1-0.3,0.3-0.5,0.4c-0.4,0.4-0.5,1-0.1,1.4c0.4,0.4,1,0.5,1.4,0.1   C26.4,5,27.2,4.5,28,4c0.4-0.2,0.6-0.7,0.5-1.1c0.4-0.1,0.8-0.1,1.2-0.2C29.8,3,30.2,3,30.5,2.9c10.1-3,17.2,8.7,19.6,19.1   c-0.3-0.1-0.7-0.2-1-0.2c-0.5-0.1-1.1,0.2-1.2,0.8c-0.1,0.5,0.2,1.1,0.8,1.2c0.6,0.1,1.2,0.3,1.9,0.4c0.5,2.9,0.8,6.1,0.8,9.3   c0,3.3-0.3,6.4-0.8,9.4C45.8,44,40,44.8,33.5,44.8c-6.5,0-12.3-0.7-17.1-1.9c-0.1-0.6-0.2-1.2-0.3-1.9c-0.1-0.5-0.6-0.9-1.1-0.8   c-0.5,0.1-0.9,0.6-0.8,1.1c0,0.3,0.1,0.7,0.2,1c-7.4-2.2-11.8-5.6-11.8-8.8c0,0,0,0,0,0c0-0.2,0.1-2.5,0.1-2.7   c0.4,0.2,0.9,0,1.1-0.3c0.5-0.6,1.2-1.3,2-1.8c0.4-0.3,0.5-1,0.2-1.4c-0.3-0.4-1-0.5-1.4-0.2c-0.6,0.5-1.2,0.9-1.7,1.4   C4.9,16.6,13.6,7,24.9,3.7z M2.9,38.6C5.3,41,9.5,43,14.7,44.5c0.2,0.4,0.6,0.7,1.1,0.6c0.2,0,0.3-0.1,0.4-0.2   c5,1.2,10.9,1.9,17.2,1.9c6.1,0,11.8-0.6,16.6-1.8c-2.4,10.2-9.4,21.8-19.3,19.1c-0.3-0.1-0.6,0-0.8,0.2c-0.4,0-0.8-0.1-1.2-0.2   c0.1-0.4-0.1-0.8-0.5-1c-0.8-0.4-1.6-1-2.3-1.6c-0.4-0.3-1.1-0.3-1.4,0.1c-0.3,0.4-0.3,1.1,0.1,1.4c0.1,0.1,0.1,0.1,0.2,0.2   C13.5,60,4.9,50.4,2.9,38.6z M42.1,63.3c4.7-3.8,8.4-10.5,10.2-18.8c5.3-1.4,9.4-3.5,11.8-5.9C62.1,50.4,53.4,60,42.1,63.3z"/><path d="M59.7,27.6c0.9,0.5,1.7,1.1,2.3,1.6c0.4,0.4,1.1,0.3,1.4-0.1c0.4-0.4,0.3-1.1-0.1-1.4c-0.7-0.6-1.6-1.2-2.6-1.8   c-0.5-0.3-1.1-0.1-1.4,0.4C59.1,26.7,59.2,27.3,59.7,27.6z"/><path d="M8.2,27.1c0.8-0.4,1.7-0.8,2.6-1.2c0.5-0.2,0.8-0.8,0.6-1.3c-0.2-0.5-0.8-0.8-1.3-0.6c-1,0.4-2,0.8-2.8,1.3   c-0.5,0.3-0.7,0.9-0.4,1.3C7.1,27.2,7.7,27.4,8.2,27.1z"/><path d="M31,22.3C31,22.3,31.1,22.3,31,22.3c1.7,0,2.8,0,3,0c0.6,0,1-0.4,1-1s-0.4-1-1-1c-0.2,0-1.4,0-3,0c-0.6,0-1,0.5-1,1   C30,21.8,30.5,22.3,31,22.3z"/><path d="M54.4,25.3c1,0.3,1.9,0.7,2.7,1c0.5,0.2,1.1,0,1.3-0.5c0.2-0.5,0-1.1-0.5-1.3c-0.9-0.4-1.9-0.8-2.9-1.1   c-0.5-0.2-1.1,0.1-1.3,0.6S53.9,25.1,54.4,25.3z"/><path d="M13.6,24.9c0.2-0.1,0.5-0.1,0.7-0.2c-0.1,0.4-0.2,0.9-0.2,1.3c-0.1,0.5,0.3,1.1,0.9,1.1c0.5,0.1,1.1-0.3,1.1-0.9   c0.1-0.7,0.2-1.5,0.4-2.2c0.5-0.1,0.8-0.7,0.7-1.2c-0.1-0.5-0.6-0.9-1.4-0.7c-0.3-0.1-0.6,0-0.8,0.2c-0.7,0.2-1.3,0.4-2,0.6   c-0.5,0.2-0.8,0.7-0.7,1.3C12.5,24.8,13.1,25.1,13.6,24.9z"/><path d="M42.9,22.8c2.2,0.3,2.9,0.4,3.1,0.4c0.5,0,0.9-0.3,1-0.8c0.1-0.5-0.3-1.1-0.8-1.1c-1-0.2-2-0.3-3-0.4   c-0.5-0.1-1,0.3-1.1,0.9C42,22.2,42.3,22.7,42.9,22.8z"/><path d="M37,22.3c2.4,0.1,2.8,0.2,3,0.2c0.5,0,1-0.4,1-0.9c0-0.6-0.4-1-0.9-1.1c-1-0.1-2-0.1-3-0.2c-0.5,0-1,0.4-1,1   S36.4,22.3,37,22.3z"/><path d="M21.9,21c-1,0.1-2,0.3-3,0.5c-0.5,0.1-0.9,0.6-0.8,1.2c0.1,0.5,0.6,0.9,1.2,0.8c0.9-0.2,1.9-0.3,2.9-0.5   c0.5-0.1,0.9-0.6,0.8-1.1C23,21.3,22.5,21,21.9,21z"/><path d="M25.1,22.7c1-0.1,2-0.2,3-0.3c0.6,0,1-0.5,0.9-1.1c0-0.6-0.5-1-1.1-0.9c-1,0.1-2,0.2-3,0.3c-0.5,0.1-0.9,0.5-0.9,1.1   C24.1,22.3,24.6,22.7,25.1,22.7z"/><path d="M16,21.3c0.5,0.1,1.1-0.2,1.2-0.7c0.3-1,0.5-1.9,0.9-2.8c0.2-0.5-0.1-1.1-0.6-1.3c-0.5-0.2-1.1,0.1-1.3,0.6   c-0.3,0.9-0.6,1.9-0.9,2.9C15.1,20.6,15.5,21.1,16,21.3z"/><path d="M14.6,33.2C14.6,33.2,14.6,33.2,14.6,33.2c0.6,0,1-0.4,1-1c0-1,0.1-2,0.2-2.9c0-0.6-0.4-1-0.9-1.1c-0.6,0-1,0.4-1.1,0.9   c-0.1,1-0.1,2-0.2,3.1C13.6,32.7,14,33.2,14.6,33.2z"/><path d="M14.6,34.2c-0.6,0-1,0.5-1,1c0,1,0.1,2,0.2,3.1c0.1,1.3,2.1,1.1,2-0.2c-0.1-1-0.1-2-0.2-2.9C15.6,34.6,15.1,34.1,14.6,34.2   z"/><path d="M20.6,54.9c-0.5-0.8-0.9-1.7-1.3-2.6c-0.2-0.5-0.8-0.7-1.3-0.5c-0.5,0.2-0.7,0.8-0.5,1.3c0.4,1,0.9,1.9,1.4,2.8   c0.3,0.5,0.9,0.7,1.4,0.4C20.6,56,20.8,55.4,20.6,54.9z"/><path d="M21.9,9.9c0.6-0.8,1.1-1.6,1.7-2.3c0.4-0.4,0.3-1-0.1-1.4c-0.4-0.4-1-0.3-1.4,0.1c-0.7,0.8-1.3,1.6-1.9,2.5   c-0.3,0.5-0.2,1.1,0.3,1.4C21,10.5,21.6,10.4,21.9,9.9z"/><path d="M17.8,15.6c0.5,0.2,1.1,0,1.3-0.5c0.4-0.9,0.8-1.8,1.3-2.6c0.3-0.5,0.1-1.1-0.4-1.4c-0.5-0.3-1.1-0.1-1.4,0.4   c-0.5,0.9-0.9,1.8-1.3,2.8C17.1,14.8,17.3,15.3,17.8,15.6z"/><path d="M18.2,49.5c-0.3-0.9-0.6-1.8-0.9-2.8c-0.1-0.5-0.7-0.8-1.2-0.7c-0.5,0.1-0.8,0.7-0.7,1.2c0.3,1,0.6,2,0.9,2.9   c0.2,0.5,0.8,0.8,1.3,0.6C18.1,50.6,18.4,50.1,18.2,49.5z"/><path d="M22.1,57.3c-0.3-0.5-0.9-0.6-1.4-0.2c-0.5,0.3-0.6,0.9-0.2,1.4c0.6,0.9,1.3,1.7,1.9,2.5c0.4,0.4,1,0.4,1.4,0.1   c0.4-0.4,0.4-1,0.1-1.4C23.2,58.9,22.6,58.1,22.1,57.3z"/></g></svg>